<svg width="22" height="20" viewBox="0 0 22 20" fill="none" xmlns="http://www.w3.org/2000/svg">
<path d="M2.67425 6.40909L5.81062 11.7614L8.94698 6.40909H11.2652L7.03789 12.9545L11.2652 19.5H8.94698L5.81062 14.4205L2.67425 19.5H0.356071L4.51516 12.9545L0.356071 6.40909H2.67425ZM13.4875 10.7727V9.44318L17.4761 5.89773C17.8738 5.54545 18.2062 5.23011 18.4733 4.9517C18.7403 4.6733 18.942 4.40341 19.0784 4.14204C19.2147 3.88068 19.2829 3.60227 19.2829 3.30682C19.2829 2.79545 19.0869 2.3892 18.6948 2.08807C18.3028 1.78693 17.817 1.63636 17.2375 1.63636C16.6238 1.63636 16.1295 1.80114 15.7545 2.13068C15.3795 2.45455 15.192 2.88068 15.192 3.40909H13.4193C13.4193 2.4375 13.7801 1.65625 14.5017 1.06534C15.2233 0.46875 16.1466 0.170454 17.2716 0.170454C18.0216 0.170454 18.6806 0.306818 19.2488 0.579545C19.817 0.846591 20.2602 1.21591 20.5784 1.6875C20.8966 2.15341 21.0556 2.68182 21.0556 3.27273C21.0556 3.73864 20.9619 4.17045 20.7744 4.56818C20.5869 4.96591 20.2943 5.37784 19.8966 5.80398C19.4988 6.23011 18.9875 6.71591 18.3625 7.26136L16.1466 9.20455V9.27273H21.3625V10.7727H13.4875Z" fill="#F1F1F1"/>
</svg>
