<svg width="39" height="30" viewBox="0 0 39 30" fill="none" xmlns="http://www.w3.org/2000/svg">
<path d="M7 1C7 0.447715 7.44772 0 8 0C8.55228 0 9 0.447715 9 1V15C9 15.5523 8.55228 16 8 16C7.44772 16 7 15.5523 7 15V1Z" fill="black"/>
<path d="M0 8C0 7.44772 0.447715 7 1 7H15C15.5523 7 16 7.44772 16 8C16 8.55228 15.5523 9 15 9H1C0.447715 9 0 8.55228 0 8Z" fill="black"/>
<path d="M24 23C24 22.4477 24.4477 22 25 22H38C38.5523 22 39 22.4477 39 23C39 23.5523 38.5523 24 38 24H25C24.4477 24 24 23.5523 24 23Z" fill="black"/>
<path d="M6.70711 28.7435C6.31658 28.353 6.31658 27.7198 6.70711 27.3293L29.3293 4.70709C29.7198 4.31657 30.353 4.31657 30.7435 4.70709C31.134 5.09762 31.134 5.73078 30.7435 6.12131L8.12132 28.7435C7.7308 29.134 7.09763 29.134 6.70711 28.7435Z" fill="black"/>
</svg>
