<svg width="24" height="24" viewBox="0 0 24 24" fill="none" xmlns="http://www.w3.org/2000/svg">
<path d="M6.34315 7.75734C5.95263 7.36681 5.95263 6.73365 6.34315 6.34313C6.73368 5.9526 7.36684 5.9526 7.75737 6.34313L17.6569 16.2426C18.0474 16.6331 18.0474 17.2663 17.6569 17.6568C17.2663 18.0474 16.6332 18.0474 16.2426 17.6568L6.34315 7.75734Z" fill="black"/>
<path d="M6.34315 17.6569C5.95263 17.2664 5.95263 16.6332 6.34315 16.2427L16.2426 6.34317C16.6332 5.95264 17.2663 5.95264 17.6569 6.34317C18.0474 6.73369 18.0474 7.36686 17.6569 7.75738L7.75737 17.6569C7.36684 18.0474 6.73368 18.0474 6.34315 17.6569Z" fill="black"/>
</svg>
