<svg width="22" height="20" viewBox="0 0 22 20" fill="none" xmlns="http://www.w3.org/2000/svg">
<path d="M3.0076 6.40909L6.14396 11.7614L9.28032 6.40909H11.5985L7.37123 12.9545L11.5985 19.5H9.28032L6.14396 14.4205L3.0076 19.5H0.689414L4.84851 12.9545L0.689414 6.40909H3.0076ZM17.7754 10.9091C16.9913 10.9091 16.2896 10.7784 15.6702 10.517C15.0566 10.2557 14.568 9.89489 14.2043 9.43466C13.8464 8.97443 13.6617 8.44318 13.6504 7.84091H15.5254C15.5424 8.30114 15.764 8.6733 16.1901 8.95739C16.6163 9.2358 17.1447 9.375 17.7754 9.375C18.4401 9.375 18.9856 9.22159 19.4117 8.91477C19.8435 8.60795 20.0594 8.21591 20.0594 7.73864C20.0594 7.26136 19.8293 6.86932 19.3691 6.5625C18.9146 6.25568 18.3038 6.10227 17.5367 6.10227H16.6844V4.73864H17.5367C18.1674 4.73864 18.693 4.59659 19.1134 4.3125C19.5396 4.02841 19.7526 3.64773 19.7526 3.17045C19.7526 2.72727 19.5736 2.36079 19.2157 2.07102C18.8577 1.78125 18.389 1.63636 17.8094 1.63636C17.2299 1.63636 16.7299 1.77841 16.3094 2.0625C15.8947 2.34659 15.6788 2.72727 15.6617 3.20454H13.889C13.9004 2.60227 14.0793 2.07386 14.4259 1.61932C14.7782 1.16477 15.2469 0.809659 15.8322 0.553977C16.4231 0.298295 17.0822 0.170454 17.8094 0.170454C18.5481 0.170454 19.1986 0.295454 19.7611 0.545454C20.3236 0.795454 20.764 1.1392 21.0822 1.5767C21.4004 2.0142 21.5594 2.51136 21.5594 3.06818C21.5594 3.68182 21.3492 4.18466 20.9288 4.5767C20.5083 4.96875 19.9913 5.21591 19.3776 5.31818V5.38636C20.2129 5.50568 20.8521 5.79261 21.2952 6.24716C21.7441 6.7017 21.9685 7.24432 21.9685 7.875C21.9685 8.45455 21.7896 8.97443 21.4316 9.43466C21.0736 9.8892 20.5793 10.25 19.9486 10.517C19.318 10.7784 18.5935 10.9091 17.7754 10.9091Z" fill="#F1F1F1"/>
</svg>
